@startuml

Input --|> views_py
Input --|> error_handler
views_py --|> play_html
newgame_html --|> create_game_py
views_py --|> newgame_html
views_py --|> leaderboard_py
play_html --|> gamerecords_py

class views_py {
    player_name
    difficulty
    new_board
    solution
    index()
    how_to_play()
    leaderboard()
    new_game()
    play()
    make_game()
}

class error_handler {

}

class play_html {
    Django Session
    JavaScript Session
    SQLite3 DB
    drawBoard()
    drawNumbers()
    showPencilMarks()
    board.eventListener(click)
    scratchpad.eventListener(click)
    verify_solutions()
}

class gamerecords_py {
    played_id
    puzzle_id
    start_time
    end_time
    saved_board
    status
    hints
    addPlayerRecord()
    addGameRecord()
    retrieveGame()
}

class leaderboard_py {
    findLeaders()

}

class newgame_html {
    player_name
    difficulty
}

class create_game_py {
    solution
    board
    create_game()
    hide_cells()
    solvable_puzzle()
    make_board()
    is_solved()

}

class Input {
    index.html
    about.html
    howtoplay.html
    leaderboard.html
    newgame.html
    play.html
}


@enduml